<?xml version="1.0" standalone="no"?>
<!DOCTYPE svg PUBLIC "-//W3C//DTD SVG 20010904//EN"
 "http://www.w3.org/TR/2001/REC-SVG-20010904/DTD/svg10.dtd">
<svg version="1.0" xmlns="http://www.w3.org/2000/svg"
 width="650.000000pt" height="650.000000pt" viewBox="0 0 650.000000 650.000000"
 preserveAspectRatio="xMidYMid meet">
<metadata>
Created by potrace 1.11, written by Peter Selinger 2001-2013
</metadata>
<g transform="translate(0.000000,650.000000) scale(0.100000,-0.100000)"
fill="#000000" stroke="none">
<path d="M3367 6494 c-1 -1 -31 -5 -67 -8 -133 -12 -266 -35 -395 -67 -44 -11
-89 -22 -101 -25 -28 -5 -280 -92 -319 -109 -348 -154 -552 -288 -765 -504
-455 -459 -519 -1011 -167 -1426 243 -286 662 -469 1167 -510 72 -6 355 -6
400 -1 19 3 64 7 100 11 36 3 76 7 90 10 14 2 68 11 120 20 156 26 423 102
535 150 17 7 59 26 95 41 69 29 193 93 248 126 31 19 32 22 26 65 -9 69 -41
152 -79 211 l-35 52 55 96 c30 53 55 97 55 99 0 2 25 47 56 100 30 53 54 98
52 99 -7 6 -76 46 -113 66 -22 12 -106 60 -188 106 -81 46 -152 85 -158 87 -6
1 -20 -14 -31 -33 -11 -19 -62 -107 -112 -195 -51 -88 -98 -170 -104 -181 -11
-20 -6 -25 65 -65 l76 -44 -54 -6 c-30 -3 -121 -29 -204 -57 -132 -45 -226
-69 -345 -88 -66 -10 -385 -12 -455 -3 -144 20 -301 66 -406 119 -215 109
-370 297 -405 490 -11 66 -5 175 15 251 38 147 114 273 246 404 192 192 441
322 780 410 113 29 237 86 308 140 44 33 137 146 137 165 0 6 -117 10 -123 4z"/>
<path d="M3120 5404 c-106 -22 -205 -77 -287 -160 -107 -107 -153 -214 -148
-337 7 -168 131 -277 315 -277 200 -1 396 122 485 304 57 115 65 213 25 304
-61 137 -212 202 -390 166z"/>
<path d="M4775 4561 c-6 -5 -30 -20 -55 -33 -95 -53 -345 -200 -354 -208 -8
-8 71 -155 222 -413 l38 -65 212 122 c116 67 214 125 218 129 4 3 2 12 -4 19
-5 7 -23 36 -39 63 -104 185 -225 395 -227 395 -1 0 -6 -4 -11 -9z"/>
<path d="M2255 3565 c-46 -103 -134 -382 -179 -565 -39 -159 -179 -785 -202
-905 -4 -22 -8 -42 -9 -45 -2 -5 -16 -74 -20 -100 -2 -8 -15 -76 -30 -150 -15
-74 -29 -146 -31 -160 -2 -14 -13 -72 -24 -130 -11 -58 -22 -118 -25 -135 -12
-69 -57 -343 -61 -375 -3 -19 -9 -62 -14 -95 -5 -33 -12 -80 -15 -105 -3 -25
-8 -63 -11 -85 -11 -78 -13 -91 -19 -155 -4 -36 -8 -76 -10 -90 -8 -54 -17
-191 -20 -323 -4 -136 -4 -137 18 -137 32 0 116 73 191 167 60 74 226 323 226
338 0 4 9 19 19 33 32 45 291 549 291 566 0 3 15 37 34 78 45 99 86 193 137
318 54 134 77 173 97 165 71 -27 182 -60 256 -75 48 -10 91 -21 94 -25 3 -3 5
-50 3 -104 -1 -73 1 -100 11 -103 7 -2 130 -4 273 -4 l260 1 2 30 c0 17 2 64
2 106 l1 76 93 22 c50 13 132 36 181 52 48 17 90 29 92 27 2 -2 26 -42 52 -89
28 -48 55 -83 63 -81 7 2 113 62 236 133 l223 130 -30 57 c-17 31 -39 72 -50
91 l-19 35 94 95 c52 53 111 116 132 139 l39 44 52 -31 c29 -17 55 -31 58 -31
3 0 19 -10 36 -21 16 -12 33 -18 38 -13 8 8 233 392 258 441 11 20 6 25 -66
67 -42 25 -83 50 -91 55 -12 8 -12 15 2 53 21 57 53 178 68 256 l12 62 106 0
107 0 0 270 0 270 -253 0 c-196 0 -253 -3 -253 -12 -1 -7 -2 -107 -5 -223 -2
-115 -6 -223 -9 -240 -4 -16 -13 -65 -21 -107 -53 -271 -209 -547 -429 -758
-108 -104 -190 -160 -356 -242 -221 -111 -384 -151 -615 -152 -132 0 -239 10
-340 34 -86 20 -205 58 -217 69 -4 3 19 87 51 186 51 155 98 328 115 415 2 14
9 45 14 70 30 132 43 328 30 449 -35 331 -204 487 -556 514 l-64 5 -23 -53z"/>
</g>
</svg>
