<?xml version="1.0" standalone="no"?>
<!DOCTYPE svg PUBLIC "-//W3C//DTD SVG 20010904//EN"
 "http://www.w3.org/TR/2001/REC-SVG-20010904/DTD/svg10.dtd">
<svg version="1.0" xmlns="http://www.w3.org/2000/svg"
 width="365.000000pt" height="365.000000pt" viewBox="0 0 365.000000 365.000000"
 preserveAspectRatio="xMidYMid meet">
<metadata>
Created by potrace 1.11, written by Peter Selinger 2001-2013
</metadata>
<g transform="translate(0.000000,365.000000) scale(0.100000,-0.100000)"
fill="#000000" stroke="none">
<path d="M2040 3411 c0 -3 -24 -6 -53 -7 -53 -1 -183 -13 -221 -20 -12 -2 -45
-9 -73 -15 -29 -5 -57 -8 -63 -4 -5 3 -10 1 -10 -6 0 -6 -8 -9 -20 -6 -11 3
-20 2 -20 -2 0 -6 -106 -34 -135 -35 -5 -1 -12 -4 -15 -8 -3 -4 -15 -9 -25
-11 -11 -1 -24 -5 -30 -8 -5 -4 -28 -12 -50 -19 -152 -48 -363 -172 -467 -275
-113 -111 -160 -202 -159 -310 0 -79 4 -118 11 -125 19 -18 40 -62 34 -72 -4
-6 -3 -8 3 -5 14 8 46 -32 39 -49 -3 -9 -1 -12 5 -9 5 4 16 1 24 -5 18 -15 20
-34 3 -24 -7 4 -8 3 -4 -5 6 -9 11 -9 21 -1 11 9 17 7 27 -9 7 -12 17 -21 21
-21 5 0 28 -13 52 -30 24 -16 48 -30 54 -30 6 0 11 -4 11 -10 0 -5 11 -10 25
-10 26 0 35 -24 13 -33 -10 -4 -10 -6 0 -6 7 -1 15 6 18 14 6 14 8 13 21 -2 8
-10 11 -12 8 -5 -6 11 -3 12 12 3 11 -6 24 -7 28 -3 4 4 4 -4 1 -18 -6 -20 -5
-22 4 -8 8 13 15 14 43 6 17 -6 38 -13 46 -15 10 -3 8 -8 -10 -21 -13 -9 -28
-16 -32 -14 -5 1 -6 -2 -2 -8 4 -6 18 -1 38 13 18 13 38 23 45 21 6 -1 18 -2
26 -3 8 0 17 -9 21 -19 3 -11 17 -24 31 -30 39 -18 42 -14 7 8 -41 25 -41 30
0 24 17 -3 40 -5 50 -5 9 0 17 -5 17 -10 0 -6 -4 -7 -10 -4 -6 3 -7 -1 -4 -10
6 -13 8 -14 18 -1 11 15 71 17 94 2 6 -4 12 -4 12 1 0 4 5 1 10 -7 5 -8 10
-10 10 -4 0 7 22 11 59 10 33 -1 57 -4 54 -8 -6 -10 1 -10 32 2 17 7 24 7 20
0 -8 -13 1 -13 27 1 16 9 19 8 13 -2 -6 -9 -2 -10 16 -5 41 12 53 12 54 -4 2
-24 -7 -33 -16 -19 -5 8 -3 17 4 22 8 6 7 7 -3 4 -8 -2 -14 -10 -12 -16 1 -6
3 -16 5 -23 1 -7 -3 -12 -10 -13 -6 0 -14 -3 -18 -7 -17 -17 27 0 49 19 13 12
28 18 32 15 4 -4 4 -1 0 6 -4 7 -12 10 -17 7 -5 -3 -6 0 -4 7 6 16 45 22 45 7
0 -6 -6 -7 -12 -3 -10 6 -10 4 0 -8 9 -11 10 -18 2 -23 -5 -3 -10 -12 -9 -18
0 -8 2 -8 6 1 4 10 9 9 24 -4 10 -9 19 -14 19 -9 0 4 8 1 18 -6 15 -13 16 -12
3 3 -7 10 -17 16 -21 13 -9 -6 -23 12 -26 33 -1 6 2 12 7 12 6 0 7 5 3 12 -4
6 -3 8 4 4 6 -3 23 -1 38 4 24 9 25 9 14 -5 -7 -8 -16 -13 -20 -10 -15 9 -20
-12 -7 -28 13 -18 37 -10 40 14 5 28 17 36 54 34 21 -1 44 2 51 8 8 6 12 6 12
-2 0 -6 5 -11 11 -11 5 0 8 4 4 9 -3 6 6 8 21 5 14 -3 23 -1 20 4 -3 5 7 8 22
7 15 -1 30 3 34 9 5 7 8 7 8 -1 0 -7 5 -13 11 -13 5 0 7 5 4 10 -3 6 -1 10 5
10 7 0 9 -7 6 -16 -3 -9 -6 -18 -6 -21 0 -3 -7 0 -15 7 -10 9 -15 9 -15 1 0
-6 5 -11 11 -11 5 0 7 -6 3 -12 -5 -9 -2 -9 9 1 14 11 20 11 32 1 8 -7 15 -9
16 -4 0 5 5 0 10 -11 l9 -20 -3 20 c-2 11 -8 19 -14 18 -6 -1 -16 4 -22 11 -9
11 -6 14 14 14 14 0 25 -4 25 -9 0 -5 5 -9 11 -9 8 0 7 6 -2 17 -12 15 -12 16
4 10 10 -4 21 -7 23 -7 3 0 3 -4 0 -9 -3 -4 5 -8 17 -7 14 1 21 7 19 17 -1 12
6 15 28 14 18 -1 44 8 65 22 40 27 52 29 34 6 -11 -15 -10 -15 8 1 19 15 25
16 38 6 8 -7 15 -9 15 -4 0 4 7 -1 16 -12 14 -18 15 -18 4 4 -6 12 -15 20 -20
17 -5 -3 -11 -1 -14 4 -3 5 1 11 9 15 8 3 17 1 20 -4 4 -6 10 -10 15 -10 6 0
2 9 -7 20 -11 13 -19 16 -24 9 -9 -15 -59 -20 -59 -7 0 6 7 8 15 4 8 -3 15 -1
15 4 0 6 3 9 8 9 4 -1 10 0 15 1 4 1 12 4 17 5 6 1 12 4 15 5 3 1 8 3 13 4 4
1 17 8 30 15 13 7 30 10 38 7 7 -3 13 -2 13 2 -1 4 0 9 1 12 5 14 5 58 -1 54
-8 -4 -35 57 -31 69 1 5 -2 6 -6 3 -5 -3 -18 4 -28 15 -18 21 -93 59 -114 59
-6 0 -9 3 -7 8 3 4 -46 7 -108 7 -62 0 -111 -2 -109 -5 10 -9 -122 -40 -181
-42 -16 0 -34 -3 -40 -7 -5 -3 -31 -6 -56 -6 -25 -1 -49 -4 -55 -6 -20 -11
-89 -4 -87 9 2 6 -2 12 -7 12 -6 0 -10 -7 -10 -15 0 -9 -8 -14 -20 -12 -29 5
-41 19 -30 37 7 10 10 11 10 3 0 -7 5 -13 11 -13 5 0 8 4 4 9 -3 6 3 8 15 6
11 -2 22 0 25 4 2 5 18 7 35 6 16 -1 30 2 30 7 0 6 6 8 14 5 8 -3 20 1 26 9 7
8 19 14 26 14 8 0 14 6 14 13 0 8 4 7 10 -3 5 -8 10 -19 10 -25 0 -5 -5 -3
-10 5 -7 11 -10 11 -10 2 0 -7 -5 -10 -10 -7 -13 8 -8 -17 5 -28 6 -5 4 -7 -5
-4 -8 2 -14 10 -13 16 4 14 -14 15 -22 1 -3 -5 -1 -10 4 -10 6 0 10 -5 8 -11
-1 -6 8 -12 20 -14 12 -1 20 2 17 7 -3 5 5 6 19 3 15 -4 28 -2 32 5 5 9 1 10
-13 6 -15 -5 -20 -3 -18 8 3 20 16 33 16 17 0 -7 4 -10 9 -6 5 3 12 1 16 -5 3
-5 10 -10 16 -10 5 0 0 9 -11 20 -11 11 -20 26 -20 33 0 8 -3 7 -10 -3 -5 -8
-12 -12 -15 -8 -10 9 34 50 45 43 6 -4 10 0 10 7 0 7 14 28 31 46 16 17 27 32
23 32 -3 0 -1 6 5 14 6 8 13 33 15 57 2 29 7 43 15 41 7 -1 10 2 6 8 -3 6 -10
8 -15 5 -11 -7 -32 30 -22 40 4 3 3 5 -3 3 -11 -3 -57 26 -51 33 2 2 -5 5 -17
6 -12 1 -50 4 -83 6 -75 7 -131 -5 -206 -43 -113 -58 -174 -138 -165 -216 2
-25 12 -53 21 -63 9 -10 14 -21 11 -24 -3 -4 -2 -5 1 -2 4 2 20 -3 36 -11 29
-15 60 -25 86 -26 7 -1 11 -6 9 -12 -2 -6 -11 -10 -21 -8 -9 2 -16 -2 -16 -7
0 -5 9 -8 20 -6 11 2 20 -1 20 -6 0 -7 -15 -8 -37 -5 -21 3 -69 8 -108 11 -38
3 -72 10 -73 15 -2 6 -8 8 -13 4 -8 -5 -53 6 -99 23 -8 3 -21 7 -28 9 -69 14
-201 112 -216 162 -4 12 -12 19 -18 16 -6 -4 -8 -2 -4 4 3 6 2 13 -3 16 -5 4
-8 17 -6 31 1 14 -2 28 -6 31 -12 7 -11 24 2 24 5 0 8 -4 4 -9 -3 -5 -1 -12 4
-16 6 -3 9 -11 7 -18 -1 -7 -1 -9 1 -4 11 18 22 -6 12 -26 -11 -21 -10 -21 6
-5 16 15 16 19 4 34 -12 15 -12 16 6 11 11 -4 27 -2 35 3 12 8 10 10 -9 8 -13
-2 -26 3 -28 10 -3 7 1 10 11 6 9 -3 16 -1 16 6 0 6 -5 8 -11 4 -7 -4 -10 -1
-7 7 3 8 14 13 24 11 16 -2 17 -1 4 7 -22 15 -28 14 -35 -10 -6 -17 -9 -18
-23 -7 -13 11 -14 11 -7 -1 5 -10 4 -12 -4 -7 -6 4 -9 12 -5 17 3 5 9 7 14 4
4 -3 10 1 13 9 4 10 0 12 -14 9 -10 -3 -19 0 -19 6 0 5 6 8 14 5 9 -4 13 2 11
19 -3 22 -1 23 20 13 13 -6 21 -14 18 -19 -3 -4 -11 -3 -19 4 -8 7 -14 7 -14
1 0 -11 30 -25 37 -18 4 4 6 13 12 46 1 3 5 -2 11 -10 5 -8 13 -11 17 -6 4 5
2 11 -4 13 -7 3 -13 9 -13 14 0 6 5 7 10 4 6 -3 10 -1 10 5 0 6 5 8 10 5 6 -4
8 -10 6 -14 -3 -4 2 -8 10 -8 11 0 9 6 -7 23 -13 14 -17 24 -10 29 6 3 11 0
11 -7 1 -8 6 -6 15 6 13 17 15 17 21 3 8 -21 21 -22 21 -2 0 8 -4 12 -8 10 -3
-3 -12 2 -18 9 -8 10 -9 16 -1 21 5 3 10 2 10 -2 0 -5 10 -9 23 -10 l22 -2
-24 13 c-19 11 -21 14 -7 19 9 4 16 2 16 -3 0 -6 8 -10 18 -10 16 1 16 1 0 11
-26 15 -23 32 3 18 12 -6 25 -7 30 -2 5 5 1 10 -9 11 -39 4 -57 9 -54 15 1 4
4 6 7 5 2 -2 12 7 20 20 9 12 20 22 24 22 14 0 21 -29 9 -36 -6 -4 -8 -3 -5 3
3 5 0 10 -8 10 -8 0 -16 -6 -19 -12 -2 -7 5 -11 17 -9 12 1 26 3 31 3 4 1 6
10 3 21 -3 13 2 25 16 35 28 19 38 19 30 -1 -3 -8 -12 -13 -19 -10 -7 3 -16 1
-19 -4 -3 -4 6 -7 21 -5 16 1 24 -2 20 -10 -2 -6 0 -18 6 -26 8 -11 9 -11 4 3
-3 11 5 24 23 38 35 24 38 25 44 3 2 -10 4 -4 3 13 -1 32 -19 37 -30 8 -3 -8
-11 -14 -17 -14 -8 0 -7 6 2 18 13 15 12 16 -3 3 -10 -7 -15 -17 -12 -22 3 -5
0 -9 -5 -9 -14 0 -14 6 0 31 6 12 17 18 25 15 8 -3 14 -2 14 2 0 4 13 12 29
18 35 14 63 1 54 -24 -4 -10 2 -7 14 8 12 14 19 27 17 30 -3 2 -9 -1 -13 -8
-6 -10 -10 -10 -20 1 -9 12 -6 15 19 19 17 3 34 0 37 -5 3 -6 1 -7 -4 -4 -6 4
-11 1 -10 -6 1 -34 -4 -48 -15 -41 -7 4 -8 3 -4 -5 9 -14 26 -5 26 15 0 8 4
12 10 9 5 -3 7 0 4 8 -3 8 2 20 11 27 13 11 21 11 36 2 10 -7 24 -12 31 -11 7
0 3 4 -9 9 -25 10 -31 26 -10 28 15 1 52 10 52 12 0 2 29 8 70 14 17 2 39 7
50 11 l20 8 -20 -16 c-11 -9 -16 -17 -11 -17 6 0 2 -6 -7 -12 -13 -10 -14 -17
-6 -28 9 -13 10 -13 6 2 -4 9 1 19 10 22 9 4 13 9 10 12 -7 7 24 38 46 47 9 3
17 2 17 -3 0 -6 5 -10 11 -10 5 0 8 4 5 9 -3 5 9 18 28 29 26 15 37 17 46 9 8
-9 10 -8 5 5 -4 11 2 22 18 33 38 25 40 42 6 47 -16 3 -29 2 -29 -1z m-370
-185 c0 -3 -4 -8 -10 -11 -5 -3 -10 -1 -10 4 0 6 5 11 10 11 6 0 10 -2 10 -4z
m-340 -173 c0 -3 -11 -14 -25 -25 -13 -10 -24 -24 -22 -31 1 -6 -2 -11 -8 -12
-5 0 -16 -4 -22 -8 -7 -5 -19 -5 -25 -2 -7 3 -6 0 3 -6 14 -10 13 -14 -8 -37
-17 -19 -26 -23 -35 -14 -8 8 -6 18 7 39 29 44 107 112 122 106 7 -3 13 -7 13
-10z m-160 -249 c0 -8 -5 -12 -10 -9 -6 4 -8 11 -5 16 9 14 15 11 15 -7z m815
-274 c3 -5 1 -10 -4 -10 -6 0 -11 5 -11 10 0 6 2 10 4 10 3 0 8 -4 11 -10z
m460 -297 c-37 -27 -55 -35 -55 -22 0 9 -3 9 -14 0 -8 -6 -20 -10 -27 -9 -8 2
-13 -5 -13 -14 2 -21 -7 -23 -23 -7 -15 15 -63 20 -63 8 0 -6 -4 -7 -10 -4
-16 10 -11 23 8 20 9 -1 25 2 36 7 12 7 16 7 12 0 -3 -5 1 -13 10 -16 9 -4 13
-2 8 5 -9 16 14 28 43 23 14 -3 22 -1 19 5 -3 5 8 8 24 7 17 -1 30 2 30 7 0 4
5 5 10 2 6 -3 10 -1 10 6 0 7 3 9 7 5 5 -4 -1 -14 -12 -23z m-505 -109 c-15
-17 -17 -17 -23 -1 -3 8 3 14 15 14 16 2 17 -1 8 -13z"/>
<path d="M1280 3036 c-14 -12 -32 -31 -40 -41 -14 -18 -14 -19 2 -7 9 8 22 11
27 7 6 -3 8 0 5 8 -3 9 4 22 17 31 13 8 21 18 18 20 -2 2 -15 -6 -29 -18z"/>
<path d="M1205 2960 c-3 -5 -3 -10 2 -10 4 0 1 -4 -7 -10 -8 -5 -12 -11 -9
-15 3 -3 14 3 23 14 10 11 13 21 7 25 -5 4 -12 2 -16 -4z"/>
<path d="M2113 3335 c0 -8 4 -12 9 -9 5 3 6 10 3 15 -9 13 -12 11 -12 -6z"/>
<path d="M2015 3310 c-3 -5 -1 -10 4 -10 6 0 11 5 11 10 0 6 -2 10 -4 10 -3 0
-8 -4 -11 -10z"/>
<path d="M1995 3279 c-4 -6 -5 -12 -2 -15 2 -3 7 2 10 11 7 17 1 20 -8 4z"/>
<path d="M1919 3262 c-13 -15 -12 -16 3 -4 13 10 17 10 21 0 4 -9 6 -9 6 -1 2
20 -16 24 -30 5z"/>
<path d="M1967 3257 c-3 -8 1 -14 8 -14 7 0 11 6 8 14 -3 7 -6 13 -8 13 -2 0
-5 -6 -8 -13z"/>
<path d="M1827 3243 c3 -7 9 -10 14 -7 14 8 11 21 -5 21 -8 0 -12 -6 -9 -14z"/>
<path d="M1764 3236 c-3 -9 -12 -12 -22 -8 -15 5 -15 4 1 -12 10 -10 21 -16
24 -12 4 3 3 6 -1 6 -4 0 -2 9 4 20 6 11 8 20 5 20 -3 0 -8 -6 -11 -14z"/>
<path d="M1795 3240 c-3 -5 -1 -10 4 -10 6 0 11 5 11 10 0 6 -2 10 -4 10 -3 0
-8 -4 -11 -10z"/>
<path d="M1820 3210 c8 -5 20 -10 25 -10 6 0 3 5 -5 10 -8 5 -19 10 -25 10 -5
0 -3 -5 5 -10z"/>
<path d="M1670 3190 c0 -5 7 -7 15 -4 8 4 15 8 15 10 0 2 -7 4 -15 4 -8 0 -15
-4 -15 -10z"/>
<path d="M1775 3191 c-3 -6 5 -15 17 -21 21 -10 21 -10 6 3 -10 8 -15 17 -11
20 3 4 4 7 0 7 -3 0 -8 -4 -12 -9z"/>
<path d="M1559 3188 c-11 -48 -7 -61 11 -29 7 13 7 22 0 26 -5 3 -10 5 -11 3z"/>
<path d="M1680 3170 c-9 -6 -10 -10 -3 -10 6 0 15 5 18 10 8 12 4 12 -15 0z"/>
<path d="M1570 3130 c0 -5 5 -10 10 -10 6 0 10 5 10 10 0 6 -4 10 -10 10 -5 0
-10 -4 -10 -10z"/>
<path d="M1513 3103 c0 -11 7 -20 14 -20 10 0 10 4 1 16 -7 9 -13 18 -15 20
-1 2 -1 -5 0 -16z"/>
<path d="M1636 3108 c3 -4 11 -5 19 -1 21 7 19 12 -4 10 -11 0 -18 -5 -15 -9z"/>
<path d="M1420 3092 c0 -7 5 -12 11 -12 5 0 8 -4 4 -9 -3 -5 -1 -12 4 -15 13
-8 7 22 -7 36 -9 9 -12 9 -12 0z"/>
<path d="M1486 3085 c4 -8 8 -15 10 -15 2 0 4 7 4 15 0 8 -4 15 -10 15 -5 0
-7 -7 -4 -15z"/>
<path d="M1410 3055 c0 -8 4 -15 10 -15 5 0 7 7 4 15 -4 8 -8 15 -10 15 -2 0
-4 -7 -4 -15z"/>
<path d="M1380 3026 c0 -2 7 -7 16 -10 8 -3 12 -2 9 4 -6 10 -25 14 -25 6z"/>
<path d="M1387 2989 c7 -7 15 -10 18 -7 3 3 -2 9 -12 12 -14 6 -15 5 -6 -5z"/>
<path d="M1268 2893 c7 -3 16 -2 19 1 4 3 -2 6 -13 5 -11 0 -14 -3 -6 -6z"/>
<path d="M1226 2873 c-6 -14 -5 -15 5 -6 7 7 10 15 7 18 -3 3 -9 -2 -12 -12z"/>
<path d="M2135 2779 c-4 -6 -5 -12 -2 -15 2 -3 7 2 10 11 7 17 1 20 -8 4z"/>
<path d="M1216 2772 c-3 -5 1 -9 9 -9 8 0 12 4 9 9 -3 4 -7 8 -9 8 -2 0 -6 -4
-9 -8z"/>
<path d="M1212 2730 c0 -14 2 -19 5 -12 2 6 2 18 0 25 -3 6 -5 1 -5 -13z"/>
<path d="M2134 2738 c3 -10 -2 -24 -10 -32 -8 -9 -15 -19 -15 -23 0 -4 -10
-19 -21 -33 -12 -14 -22 -27 -21 -30 3 -10 -19 -30 -27 -25 -17 10 -19 -13 -3
-26 12 -10 14 -10 9 -1 -4 6 -3 12 2 12 16 0 22 -13 11 -27 -9 -9 -8 -13 0
-13 6 0 11 4 11 10 0 5 8 7 18 3 11 -4 10 0 -5 11 -26 20 -31 38 -7 29 10 -4
15 -1 13 8 -5 22 11 60 22 53 6 -4 6 -11 -1 -19 -9 -10 -9 -19 0 -32 11 -17
11 -17 6 1 -4 10 -2 24 4 31 7 9 8 15 1 19 -6 4 -3 19 9 39 14 24 16 36 9 47
-9 13 -10 12 -5 -2z"/>
<path d="M1185 2730 c-6 -10 15 -50 28 -50 4 0 6 -4 2 -9 -3 -5 -1 -12 4 -15
16 -10 6 22 -13 43 -10 11 -15 25 -11 30 3 6 4 11 1 11 -3 0 -7 -4 -11 -10z"/>
<path d="M2135 2671 c-3 -5 0 -13 6 -17 7 -4 9 -3 5 4 -3 6 2 13 11 15 16 4
16 5 1 6 -9 0 -19 -3 -23 -8z"/>
<path d="M2133 2625 c-3 -9 -3 -18 -1 -21 3 -3 8 4 11 16 6 23 -1 27 -10 5z"/>
<path d="M1277 2623 c-10 -9 -9 -23 1 -23 5 0 9 7 9 15 0 17 -1 18 -10 8z"/>
<path d="M1319 2618 c-5 -18 -6 -38 -1 -34 7 8 12 36 6 36 -2 0 -4 -1 -5 -2z"/>
<path d="M1375 2570 c-3 -5 -1 -10 4 -10 6 0 11 5 11 10 0 6 -2 10 -4 10 -3 0
-8 -4 -11 -10z"/>
<path d="M2136 2532 c-3 -5 1 -9 9 -9 8 0 12 4 9 9 -3 4 -7 8 -9 8 -2 0 -6 -4
-9 -8z"/>
<path d="M1655 2521 c-6 -11 33 -36 43 -27 3 3 0 6 -7 6 -7 0 -9 4 -6 10 4 6
-1 7 -11 3 -12 -4 -15 -3 -10 5 4 7 5 12 2 12 -3 0 -7 -4 -11 -9z"/>
<path d="M1896 2521 c-3 -5 -19 -7 -36 -6 -16 1 -30 -2 -30 -7 0 -6 8 -7 18
-4 16 6 16 5 -1 -8 -16 -12 -13 -13 24 -12 31 2 43 7 45 19 3 19 -12 32 -20
18z m11 -14 c0 -7 -11 -13 -23 -13 -12 0 -20 4 -18 8 3 5 9 6 14 3 5 -3 11 -1
15 5 8 13 12 13 12 -3z"/>
<path d="M1795 2499 c-4 -6 -5 -12 -2 -15 2 -3 7 2 10 11 7 17 1 20 -8 4z"/>
<path d="M740 2456 c0 -2 8 -10 18 -17 15 -13 16 -12 3 4 -13 16 -21 21 -21
13z"/>
<path d="M2675 2410 c-3 -5 -1 -10 4 -10 6 0 11 5 11 10 0 6 -2 10 -4 10 -3 0
-8 -4 -11 -10z"/>
<path d="M836 2372 c-3 -5 1 -9 9 -9 8 0 12 4 9 9 -3 4 -7 8 -9 8 -2 0 -6 -4
-9 -8z"/>
<path d="M2680 2365 c-11 -13 -11 -18 0 -28 10 -9 11 -9 6 1 -4 7 -2 19 4 27
7 8 10 15 7 15 -2 0 -10 -7 -17 -15z"/>
<path d="M890 2331 c0 -6 4 -12 8 -15 5 -3 9 1 9 9 0 8 -4 15 -9 15 -4 0 -8
-4 -8 -9z"/>
<path d="M2590 2290 c0 -6 -6 -10 -13 -8 -7 2 -13 -1 -13 -7 0 -5 7 -9 14 -7
8 2 12 -1 8 -6 -3 -5 2 -9 10 -9 9 0 11 4 5 10 -5 5 -7 16 -4 23 3 8 2 14 -1
14 -3 0 -6 -5 -6 -10z"/>
<path d="M2631 2282 c-1 -7 -6 -10 -13 -6 -6 4 -8 3 -5 -4 8 -12 32 -10 44 3
4 4 3 5 -4 2 -6 -4 -14 -1 -16 5 -4 10 -6 10 -6 0z"/>
<path d="M987 2249 c7 -7 15 -10 18 -7 3 3 -2 9 -12 12 -14 6 -15 5 -6 -5z"/>
<path d="M1093 2222 c-8 -14 -8 -19 1 -19 7 0 13 9 13 19 1 10 1 18 0 18 -1 0
-7 -8 -14 -18z"/>
<path d="M2574 2229 c-3 -6 -2 -15 4 -21 6 -6 12 -6 17 3 6 8 4 10 -5 4 -10
-6 -12 -4 -7 8 7 19 2 23 -9 6z"/>
<path d="M2627 2229 c7 -7 15 -10 18 -7 3 3 -2 9 -12 12 -14 6 -15 5 -6 -5z"/>
<path d="M1150 2210 c-9 -6 -10 -10 -3 -10 6 0 15 5 18 10 8 12 4 12 -15 0z"/>
<path d="M2490 2211 c0 -6 4 -12 8 -15 5 -3 9 1 9 9 0 8 -4 15 -9 15 -4 0 -8
-4 -8 -9z"/>
<path d="M1180 2200 c-9 -6 -10 -10 -3 -10 6 0 15 5 18 10 8 12 4 12 -15 0z"/>
<path d="M2435 2199 c-4 -6 -4 -13 -1 -16 3 -4 6 -1 6 6 0 7 5 9 12 5 7 -4 8
-3 4 4 -9 15 -13 15 -21 1z"/>
<path d="M1247 2183 c5 -12 7 -12 14 -1 8 13 13 4 9 -17 -1 -5 4 -4 11 2 15
15 10 22 -19 28 -15 3 -19 0 -15 -12z"/>
<path d="M2474 2175 c0 -13 3 -22 7 -19 8 4 6 30 -2 38 -3 3 -5 -5 -5 -19z"/>
<path d="M1230 2168 c0 -9 7 -19 16 -22 15 -6 15 -4 3 11 -7 10 -15 20 -16 22
-2 2 -3 -3 -3 -11z"/>
<path d="M1357 2169 c7 -7 15 -10 18 -7 3 3 -2 9 -12 12 -14 6 -15 5 -6 -5z"/>
<path d="M2141 2178 c-2 -16 23 -57 37 -63 12 -4 12 -2 4 8 -7 8 -8 18 -4 22
4 5 1 5 -7 0 -10 -6 -12 -2 -6 16 4 17 3 20 -3 10 -8 -11 -10 -11 -15 0 -3 8
-6 11 -6 7z"/>
<path d="M2361 2166 c-9 -11 -9 -16 0 -22 7 -4 9 -3 5 4 -3 6 2 15 11 21 10 6
13 11 7 11 -6 0 -17 -6 -23 -14z"/>
<path d="M2091 2152 c-6 -9 -11 -13 -11 -8 0 5 -8 2 -17 -5 -14 -12 -16 -12
-11 1 4 12 -3 15 -37 16 -40 0 -43 -2 -42 -25 2 -23 37 -42 37 -19 0 6 -7 8
-15 4 -17 -6 -19 2 -6 23 7 10 12 8 25 -10 9 -13 16 -19 16 -13 0 5 -5 15 -12
22 -9 9 -9 12 -1 12 7 0 18 -9 26 -20 13 -19 15 -19 21 -4 5 12 9 14 20 5 16
-14 27 -4 19 17 -4 12 3 9 22 -8 26 -23 27 -23 14 -3 -18 30 -36 36 -48 15z"/>
<path d="M1293 2153 c4 -3 1 -13 -6 -22 -11 -14 -10 -14 5 -2 16 12 16 31 1
31 -4 0 -3 -3 0 -7z"/>
<path d="M1426 2144 c-4 -9 -4 -19 -1 -22 3 -3 5 0 5 6 0 7 5 12 11 12 5 0 7
-4 4 -10 -3 -6 1 -7 10 -4 9 4 15 7 13 8 -2 1 -10 7 -19 14 -14 10 -18 10 -23
-4z"/>
<path d="M1470 2154 c0 -2 9 -8 20 -14 15 -8 18 -8 14 3 -4 11 -34 21 -34 11z"/>
<path d="M2387 2149 c7 -7 15 -10 18 -7 3 3 -2 9 -12 12 -14 6 -15 5 -6 -5z"/>
<path d="M1377 2130 c-3 -11 -1 -17 4 -14 6 3 18 0 27 -7 12 -10 12 -7 -3 11
-11 14 -20 26 -21 28 -1 1 -4 -6 -7 -18z"/>
<path d="M1550 2132 c0 -10 3 -21 6 -25 8 -7 54 13 54 25 0 4 5 8 11 8 5 0 7
-4 4 -10 -3 -5 -1 -10 5 -10 21 0 4 25 -18 26 -12 1 -19 -2 -16 -7 2 -4 -5
-13 -16 -19 -16 -9 -20 -8 -20 5 0 10 5 13 12 9 7 -4 8 -3 4 4 -11 18 -26 14
-26 -6z"/>
<path d="M1321 2126 c-8 -10 -9 -16 -1 -21 6 -4 9 -1 8 7 -2 7 3 12 10 10 8
-1 11 2 7 8 -8 13 -10 13 -24 -4z"/>
<path d="M1658 2127 c-10 -6 -9 -8 3 -4 9 3 21 1 26 -4 6 -6 10 -5 10 4 0 16
-20 18 -39 4z"/>
<path d="M1730 2132 c0 -5 7 -13 16 -16 22 -8 24 -8 24 6 0 6 -3 8 -7 5 -3 -4
-12 -2 -20 4 -8 7 -13 8 -13 1z"/>
<path d="M1467 2119 c-14 -8 -16 -14 -6 -25 6 -8 17 -14 23 -14 6 0 3 5 -7 11
-18 10 -18 11 0 25 21 16 16 18 -10 3z"/>
<path d="M1505 2117 c-14 -11 -15 -16 -5 -22 9 -5 11 -4 6 3 -4 7 -1 12 8 12
9 0 16 5 16 10 0 13 -3 13 -25 -3z"/>
<path d="M2070 2110 c0 -5 5 -10 11 -10 5 0 7 5 4 10 -3 6 -8 10 -11 10 -2 0
-4 -4 -4 -10z"/>
<path d="M1714 2095 c3 -23 12 -26 13 -5 1 11 -2 20 -7 20 -4 0 -7 -7 -6 -15z"/>
<path d="M2593 2057 c-57 -28 -103 -55 -103 -58 0 -4 18 -47 41 -95 63 -134
83 -227 76 -354 -15 -305 -209 -549 -502 -631 -67 -19 -103 -22 -217 -21 -103
1 -138 -2 -139 -11 0 -6 -2 -21 -4 -31 -2 -10 -5 -60 -7 -109 -3 -90 -3 -90
22 -93 14 -1 52 -6 85 -10 33 -4 64 -7 68 -5 5 1 6 -3 3 -8 -4 -5 3 -16 15
-24 14 -10 17 -17 9 -22 -6 -4 -9 -13 -6 -21 3 -7 1 -16 -5 -19 -5 -4 -7 -11
-4 -16 4 -5 2 -9 -3 -9 -6 0 -13 7 -16 16 -3 8 -2 13 2 10 5 -3 9 1 9 9 0 11
-5 12 -20 3 -15 -8 -18 -7 -15 4 3 7 10 14 16 14 7 1 17 2 22 3 6 0 10 6 10
12 0 5 -5 7 -12 3 -6 -4 -8 -3 -5 3 4 6 1 16 -7 22 -10 8 -16 8 -25 -3 -8 -10
-9 -16 -1 -21 6 -3 8 -11 4 -16 -3 -6 -12 -3 -20 8 -12 14 -11 11 1 -15 8 -17
20 -32 26 -32 6 0 8 -4 5 -8 -2 -4 4 -13 14 -20 14 -9 19 -8 24 3 3 8 12 12
21 9 8 -3 12 -11 8 -18 -4 -6 0 -6 9 2 11 9 18 10 23 2 3 -5 2 -10 -3 -10 -15
0 -23 -28 -10 -36 6 -4 8 -3 5 3 -4 6 0 16 8 23 12 10 13 16 3 28 -10 13 -10
14 0 8 6 -4 12 -3 12 2 0 6 -7 13 -16 16 -22 8 -24 8 -20 -6 1 -7 1 -10 -1 -5
-3 4 -9 5 -14 1 -16 -10 -10 8 9 23 16 14 16 14 0 9 -10 -3 -18 -1 -18 4 0 16
30 11 36 -5 4 -8 9 -13 14 -10 4 2 12 -7 19 -21 6 -14 8 -23 3 -20 -4 2 -8 -4
-8 -14 0 -10 4 -16 8 -14 4 3 8 0 8 -5 0 -6 5 -11 12 -11 9 0 9 3 0 12 -21 21
-13 32 10 12 14 -12 18 -13 10 -3 -14 18 -7 29 20 29 10 0 18 5 18 11 0 5 5 7
10 4 6 -4 10 -3 9 2 -4 20 2 27 12 13 9 -13 10 -13 6 0 -2 8 -10 14 -17 12 -7
-2 -10 3 -7 11 3 8 -1 27 -9 42 -16 30 -11 46 14 44 15 -1 15 -2 0 -6 -17 -4
-16 -7 2 -43 11 -21 24 -42 30 -45 6 -4 7 -12 4 -18 -4 -7 -3 -8 1 -4 12 10
15 38 4 31 -5 -3 -9 -1 -9 4 0 17 13 22 29 10 9 -7 13 -8 9 -4 -4 5 0 15 10
22 24 19 37 17 21 -3 -12 -14 -11 -14 13 1 24 16 29 16 34 3 3 -9 13 -18 22
-22 14 -5 14 -4 -1 13 -18 20 -22 33 -9 31 19 -3 33 2 27 11 -4 6 -17 4 -35
-5 -32 -17 -53 -20 -30 -5 8 5 10 10 5 10 -6 0 -19 -6 -30 -14 -17 -11 -23
-11 -40 7 -11 11 -15 17 -8 13 17 -10 35 28 21 42 -7 7 -16 12 -22 12 -6 0 -5
-5 2 -12 7 -7 12 -16 12 -21 0 -5 -9 1 -19 14 -18 22 -20 22 -26 7 -9 -22 -22
-24 -22 -3 0 8 4 12 8 10 3 -3 12 2 19 10 7 8 17 12 23 8 6 -4 7 -1 2 7 -5 9
-4 11 3 6 7 -4 12 -2 12 3 0 6 -7 11 -15 11 -8 0 -15 -5 -15 -11 0 -5 -5 -7
-12 -3 -7 4 -8 3 -4 -4 4 -7 1 -12 -8 -12 -8 0 -18 5 -21 10 -3 6 -2 10 2 10
5 0 18 7 29 16 10 9 -2 4 -28 -10 -53 -30 -59 -31 -54 -13 1 6 1 9 -1 4 -3 -4
-9 -5 -13 -2 -5 3 -11 1 -14 -4 -4 -5 -1 -13 5 -17 8 -5 9 -3 4 7 -8 12 -6 12
8 0 9 -7 14 -17 11 -22 -10 -17 9 -9 26 11 11 13 21 17 25 10 3 -5 2 -10 -4
-10 -6 0 -8 -6 -5 -13 3 -8 -3 -20 -13 -28 -16 -13 -17 -12 -4 4 17 21 9 34
-8 13 -10 -12 -16 -10 -39 12 -29 30 -36 48 -18 50 57 7 73 10 89 15 56 22 70
18 91 -25 14 -26 14 -28 1 -18 -9 7 -15 8 -15 2 0 -12 25 -33 42 -36 7 -1 18
-5 25 -9 6 -4 18 -5 25 -2 8 3 29 -9 48 -26 30 -29 34 -30 45 -15 10 13 14 14
22 4 20 -26 23 -37 12 -44 -8 -5 -9 -3 -4 7 8 12 6 12 -8 0 -9 -7 -17 -17 -17
-22 0 -10 43 -5 62 8 7 4 17 8 22 8 5 0 12 7 15 15 7 17 31 25 31 10 0 -6 4
-10 10 -10 5 0 6 7 3 17 -4 10 -2 14 4 10 6 -4 16 7 23 23 7 17 18 30 24 30 6
1 1 6 -12 13 -12 7 -20 16 -16 20 4 3 15 2 25 -3 12 -7 20 -6 25 2 4 7 4 10
-1 6 -4 -4 -14 0 -22 10 -11 13 -15 14 -20 4 -4 -10 -9 -7 -18 10 -8 15 -8 27
-2 36 15 19 0 27 -17 9 -8 -8 -12 -17 -9 -21 4 -3 2 -6 -4 -6 -5 0 -15 11 -21
25 -9 20 -8 26 6 35 14 9 14 10 -5 5 -21 -6 -28 3 -20 21 1 3 -6 10 -15 15
-10 6 -18 16 -18 22 0 15 80 83 92 80 4 -2 7 3 5 10 -1 6 6 11 15 11 11 -1 15
4 10 15 -5 14 -4 14 14 1 51 -38 64 -53 54 -65 -10 -12 8 -27 35 -29 6 -1 10
-13 10 -28 1 -15 -1 -25 -4 -23 -2 3 -10 0 -18 -6 -18 -16 -17 -1 2 17 8 9 15
20 15 26 0 6 -3 8 -7 5 -3 -4 -17 0 -31 9 -23 15 -24 15 -17 -8 4 -16 3 -19
-3 -9 -8 11 -10 11 -14 0 -4 -12 -7 -12 -21 0 -32 26 -18 -10 16 -42 17 -17
26 -27 18 -22 -10 6 -12 4 -6 -5 5 -9 -3 -22 -25 -40 -21 -17 -27 -27 -17 -27
9 0 14 4 12 8 -9 13 28 20 37 7 6 -8 7 -4 3 12 -6 20 -5 23 6 13 7 -7 17 -13
23 -13 5 0 1 6 -10 14 -19 15 -19 15 1 30 25 18 32 12 14 -11 -12 -16 -12 -17
2 -6 9 7 19 10 23 6 4 -4 4 1 1 12 -6 17 -4 17 14 -4 12 -13 21 -19 21 -13 0
5 -6 15 -14 21 -14 12 -16 35 -4 47 4 3 4 13 1 22 -4 14 -3 15 5 2 8 -10 8
-18 0 -27 -8 -10 -5 -12 13 -9 13 3 29 5 34 6 6 1 1 5 -10 10 -14 6 -15 9 -4
9 8 1 20 -4 27 -11 9 -9 12 -9 12 -1 0 7 -5 15 -11 19 -6 3 2 14 21 25 23 15
30 24 25 39 -4 13 0 22 15 30 11 6 20 15 20 21 0 6 -6 6 -19 0 -19 -10 -59 -7
-70 5 -3 4 1 5 10 1 9 -3 23 3 32 14 17 19 46 16 49 -5 4 -34 3 -42 -4 -53 -5
-6 -5 -14 2 -18 7 -4 7 -12 0 -26 -6 -11 -15 -17 -21 -14 -5 4 -9 0 -9 -7 0
-9 -3 -9 -10 2 -7 11 -10 11 -10 2 0 -7 -4 -11 -10 -7 -5 3 -7 -7 -5 -25 3
-24 1 -29 -8 -21 -8 6 -18 6 -27 1 -8 -5 -17 -7 -21 -4 -4 2 -10 0 -13 -5 -7
-10 10 -24 32 -27 10 -2 11 1 1 12 -8 10 -9 14 0 14 6 0 14 -6 17 -14 4 -11
13 -7 37 17 19 19 28 35 22 39 -6 4 -2 8 8 8 9 0 17 4 17 10 0 5 10 18 22 29
19 18 19 21 5 27 -9 3 -14 10 -11 16 4 5 11 5 18 -1 9 -8 12 -3 12 19 0 16 -2
28 -4 25 -3 -2 -13 7 -24 20 -11 14 -24 22 -30 19 -14 -9 -29 17 -22 41 3 14
-3 10 -25 -14 -26 -29 -30 -31 -28 -13 0 12 3 19 5 17 2 -2 12 4 23 13 14 12
15 18 6 24 -9 6 -9 8 1 8 8 0 10 5 6 13 -6 9 -5 9 7 0 8 -6 18 -11 22 -11 5 0
12 -4 15 -8 4 -4 2 -4 -5 0 -8 4 -11 0 -8 -14 2 -11 0 -20 -6 -20 -5 0 -9 -5
-9 -11 0 -5 5 -7 12 -3 7 5 8 3 3 -6 -5 -9 -4 -11 4 -6 6 4 18 2 26 -4 11 -9
15 -9 15 -1 0 6 -5 11 -11 11 -5 0 -8 4 -5 9 3 5 -2 12 -11 15 -14 6 -13 9 6
30 16 17 19 26 10 31 -8 6 -4 12 12 21 13 7 18 13 11 14 -7 0 -11 4 -8 9 3 5
15 7 25 4 10 -3 22 0 25 5 4 6 -2 8 -14 5 -11 -3 -20 0 -20 6 0 10 19 15 45
12 6 0 19 12 28 29 17 29 17 29 -5 25 -12 -3 -26 -9 -32 -15 -8 -8 -6 -9 7 -5
9 4 17 3 17 -2 0 -5 -7 -10 -15 -11 -8 -1 -21 -3 -28 -4 -14 -1 -37 -23 -38
-35 -1 -5 -5 -7 -10 -6 -11 4 -12 -14 -1 -20 4 -2 1 -2 -6 0 -7 1 -10 -1 -7
-6 3 -5 1 -12 -5 -16 -6 -4 -8 -11 -5 -16 3 -5 0 -6 -8 -3 -19 7 -17 33 2 27
12 -5 13 -3 4 7 -6 7 -27 13 -47 13 -20 1 -36 5 -36 9 0 4 -7 8 -15 8 -17 0
-18 4 -9 37 4 13 11 20 17 16 6 -4 8 0 4 11 -4 9 0 34 9 54 8 20 14 39 14 42
-1 2 3 6 8 8 5 1 21 -13 36 -33 30 -38 27 -46 -4 -15 -11 11 -24 20 -30 20 -5
0 -1 -9 10 -20 22 -22 25 -36 10 -45 -7 -4 -7 -12 0 -24 5 -10 6 -21 3 -25 -3
-3 2 -6 13 -6 28 1 56 26 58 52 1 13 7 22 15 20 9 -2 11 5 6 20 -5 20 -4 21 5
5 11 -18 5 -41 -9 -32 -5 2 -8 -6 -8 -19 0 -21 2 -23 18 -13 10 6 17 13 17 16
0 4 0 13 1 21 1 13 2 13 11 0 5 -8 13 -11 17 -6 4 4 -2 16 -14 26 -13 10 -23
21 -23 25 0 4 6 2 13 -4 8 -6 17 -8 20 -4 11 10 8 33 -4 33 -5 0 -7 -5 -3 -12
5 -7 3 -8 -5 -3 -17 10 1 27 21 20 17 -7 20 -34 6 -52 -15 -18 8 -25 26 -7 20
19 20 23 -1 46 -18 20 -4 25 16 6 10 -11 11 -9 5 5 -4 12 -14 17 -25 14 -10
-3 -24 2 -30 10 -10 11 -14 11 -20 1 -4 -7 -11 -9 -16 -5 -10 10 18 28 31 20
5 -4 7 1 3 10 -7 18 13 19 25 2 4 -5 11 -6 15 -1 4 5 2 11 -5 13 -6 3 -10 9
-6 14 3 5 -2 12 -10 15 -9 3 -13 10 -10 15 3 5 1 9 -4 9 -6 0 -12 -7 -16 -15
-3 -8 -2 -14 2 -14 20 3 32 -2 27 -11 -4 -6 -11 -7 -17 -4 -6 4 -15 0 -20 -7
-8 -11 -9 -10 -4 3 3 10 1 20 -4 23 -6 4 -10 1 -10 -6 0 -8 -4 -8 -15 1 -20
17 -19 30 3 30 14 0 15 -2 2 -10 -12 -7 -10 -9 8 -7 21 1 32 17 12 17 -6 0 -9
3 -9 8 3 20 -2 32 -12 26 -8 -4 -7 -9 2 -16 12 -8 12 -9 0 -6 -8 2 -16 14 -18
27 -2 16 1 20 9 15 8 -5 7 0 -2 11 -14 17 -13 18 4 11 19 -7 19 -6 1 14 -22
24 -13 39 12 19 14 -11 13 -9 -2 13 -11 15 -23 28 -27 28 -10 0 -38 30 -38 41
0 5 7 9 15 9 8 0 15 -5 15 -11 0 -5 -5 -7 -12 -3 -7 4 -8 3 -4 -5 4 -6 12 -8
18 -5 6 4 8 3 5 -2 -3 -6 3 -15 14 -22 11 -7 19 -8 19 -2 0 5 -4 10 -10 10
-14 0 -12 13 5 36 13 16 14 16 9 2 -3 -10 -2 -18 4 -18 11 0 10 25 -1 36 -18
18 -4 25 15 8 l22 -19 -22 31 c-17 24 -19 34 -9 44 10 12 9 12 -5 2 -10 -8
-19 -9 -22 -3 -4 5 3 12 14 16 28 9 25 24 -4 21 -17 -2 -23 1 -19 10 3 8 8 12
12 9 4 -2 8 2 8 9 0 11 -5 11 -17 4 -17 -11 -25 -48 -10 -48 5 0 7 -9 5 -20
-2 -13 2 -20 11 -20 8 0 14 -4 14 -10 0 -5 -5 -9 -11 -7 -6 1 -14 -5 -16 -13
-4 -13 -3 -13 6 0 6 8 11 10 11 4 0 -6 -6 -16 -13 -22 -15 -13 -57 10 -57 30
0 7 6 3 14 -8 8 -10 18 -15 22 -11 5 4 2 13 -6 18 -12 9 -12 10 3 5 12 -4 17
-2 14 6 -2 7 -13 12 -23 10 -18 -2 -18 -2 -1 8 9 6 17 16 17 22 0 7 -5 6 -14
-1 -12 -10 -17 -8 -26 8 -7 14 -7 21 0 21 5 0 10 -7 10 -16 0 -8 5 -12 10 -9
6 4 8 11 5 16 -4 5 -1 9 6 9 7 0 9 3 5 7 -11 11 -40 13 -52 2 -13 -11 -32 7
-20 18 3 4 6 1 6 -6 0 -7 5 -9 10 -6 6 4 7 11 4 17 -4 7 0 7 13 0 15 -8 23 -5
40 14 12 13 18 24 13 24 -4 0 -13 -7 -20 -15 -7 -8 -17 -15 -22 -15 -6 0 -4 7
3 16 11 13 11 17 -1 24 -8 5 -37 54 -65 109 -27 56 -52 101 -55 100 -3 0 -51
-23 -107 -52z m182 -247 c3 -5 1 -10 -4 -10 -6 0 -11 5 -11 10 0 6 2 10 4 10
3 0 8 -4 11 -10z m27 -56 c-6 -12 -9 -7 -9 16 0 23 3 28 9 16 5 -9 5 -23 0
-32z m-25 20 c-3 -3 -12 -4 -19 -1 -8 3 -5 6 6 6 11 1 17 -2 13 -5z m9 -45 c3
-6 2 -15 -4 -21 -6 -6 -12 -6 -17 3 -5 8 -4 10 3 5 7 -4 12 -3 12 3 0 5 -6 12
-12 14 -10 4 -10 6 -1 6 6 1 15 -4 19 -10z m15 -32 c-10 -9 -11 -8 -5 6 3 10
9 15 12 12 3 -3 0 -11 -7 -18z m77 3 c-7 -10 -14 -17 -17 -15 -4 4 18 35 25
35 2 0 -1 -9 -8 -20z m-68 -30 c0 -5 -4 -10 -10 -10 -5 0 -10 5 -10 10 0 6 5
10 10 10 6 0 10 -4 10 -10z m60 -221 c0 -5 -4 -9 -8 -9 -5 0 -9 7 -9 15 0 8 4
12 9 9 4 -3 8 -9 8 -15z m11 -26 c-12 -20 -14 -14 -5 12 4 9 9 14 11 11 3 -2
0 -13 -6 -23z m-16 -33 c-3 -5 -14 -10 -23 -9 -14 0 -13 2 3 9 27 11 27 11 20
0z m-34 -35 c15 10 22 -22 10 -42 -9 -15 -10 -13 -5 10 5 20 3 27 -7 25 -8 -2
-14 6 -15 17 -1 15 0 16 3 2 3 -9 9 -15 14 -12z m49 15 c-24 -15 -36 -11 -14
4 10 8 21 12 24 10 2 -3 -2 -9 -10 -14z m75 -38 c-17 -15 -18 -15 -6 0 7 9 9
23 5 30 -6 10 -4 11 7 0 11 -10 10 -15 -6 -30z m-135 -43 c0 -5 -4 -7 -10 -4
-5 3 -10 2 -10 -4 0 -5 6 -12 13 -14 9 -4 9 -6 0 -6 -15 -1 -26 16 -18 29 8
13 25 13 25 -1z m15 -128 c3 -5 2 -12 -3 -15 -5 -3 -9 1 -9 9 0 17 3 19 12 6z
m-57 -106 c-3 -3 -9 2 -12 12 -6 14 -5 15 5 6 7 -7 10 -15 7 -18z m-48 -16 c0
-6 -4 -7 -10 -4 -5 3 -10 11 -10 16 0 6 5 7 10 4 6 -3 10 -11 10 -16z m27 -1
c-3 -8 -6 -5 -6 6 -1 11 2 17 5 13 3 -3 4 -12 1 -19z m103 -39 c0 -3 -7 -6
-15 -6 -8 0 -12 4 -9 9 3 5 -2 21 -11 36 -15 25 -14 25 9 -3 14 -16 26 -33 26
-36z m-155 22 c-2 -5 6 -13 18 -18 12 -6 23 -20 24 -32 2 -24 -12 -37 -23 -20
-5 8 -3 9 5 5 8 -6 11 -2 9 10 -2 11 -16 27 -31 37 -15 9 -25 22 -22 27 4 6
11 8 16 4 5 -3 7 -9 4 -13z m-15 -32 c0 -5 -4 -8 -9 -5 -5 3 -11 -3 -14 -14
-4 -15 0 -20 14 -20 10 0 18 5 17 11 -2 6 4 14 12 16 12 4 12 3 2 -5 -8 -5
-13 -13 -12 -18 2 -12 -30 -18 -40 -7 -10 10 6 53 20 53 5 0 10 -5 10 -11z
m155 -37 c-3 -3 -11 0 -18 7 -9 10 -8 11 6 5 10 -3 15 -9 12 -12z m-84 -15
c-10 -9 -11 -8 -5 6 3 10 9 15 12 12 3 -3 0 -11 -7 -18z m-101 -7 c12 -7 10
-9 -8 -7 -12 0 -22 5 -22 9 0 11 12 10 30 -2z m60 -17 c-12 -8 -24 -12 -27 -9
-3 3 2 8 11 12 9 3 13 10 10 15 -3 5 2 6 11 3 14 -6 13 -9 -5 -21z m64 -22 c3
-5 -1 -14 -8 -20 -12 -10 -13 -8 -9 8 6 23 9 25 17 12z m-159 -11 c3 -5 1 -10
-4 -10 -6 0 -11 5 -11 10 0 6 2 10 4 10 3 0 8 -4 11 -10z m-21 -26 c24 -24 19
-30 -6 -8 -13 10 -25 20 -27 21 -2 2 1 3 7 3 6 0 18 -7 26 -16z m-186 -94
c-12 -19 -28 -27 -28 -14 0 6 30 33 38 34 1 0 -3 -9 -10 -20z m46 5 c5 -15
-30 -42 -42 -31 -3 3 0 6 7 6 7 0 9 4 6 10 -4 6 1 7 12 3 16 -6 16 -5 4 10 -7
9 -9 17 -3 17 5 0 12 -7 16 -15z m56 -35 c8 -14 8 -20 0 -20 -7 0 -6 -5 2 -14
7 -8 16 -12 21 -9 4 2 2 -7 -4 -21 -12 -25 -37 -39 -79 -45 -5 0 -7 -8 -3 -16
3 -9 2 -15 -3 -13 -5 1 -20 -3 -34 -10 -23 -12 -24 -12 -6 2 11 9 15 16 9 16
-6 0 -13 8 -17 18 -3 9 -9 23 -12 30 -3 6 -1 12 6 12 6 0 8 -5 5 -10 -3 -6 1
-13 9 -16 9 -3 14 -10 11 -14 -3 -5 -1 -11 4 -14 17 -11 20 23 3 34 -16 11
-15 11 1 6 12 -4 17 -2 15 6 -3 7 -11 13 -19 13 -21 0 -18 48 4 51 9 1 15 -2
11 -7 -3 -5 -10 -7 -15 -4 -5 4 -9 -3 -9 -15 0 -12 3 -19 8 -16 4 2 16 -2 27
-10 17 -13 18 -16 5 -24 -9 -6 -10 -10 -3 -10 6 0 15 5 18 10 4 6 11 8 16 5 5
-4 9 -2 9 4 0 5 -8 14 -17 20 -15 8 -16 12 -4 23 10 9 12 10 7 1 -4 -7 -3 -13
3 -13 17 0 21 17 7 29 -11 10 -18 7 -30 -11 -9 -12 -16 -17 -16 -11 0 6 7 18
15 26 8 8 11 18 7 23 -4 5 3 0 16 -10 19 -16 22 -17 22 -3 0 8 -6 18 -12 20
-10 4 -10 6 -1 6 7 1 17 -8 23 -19z m-175 0 c-3 -5 -1 -11 4 -11 6 -1 17 -2
24 -3 18 -2 20 -41 2 -56 -13 -11 -19 -11 -33 3 -9 10 -11 17 -5 17 6 0 13 -5
15 -12 6 -18 28 1 28 24 0 12 -3 18 -6 15 -10 -9 -46 12 -39 24 4 5 8 9 11 9
3 0 2 -4 -1 -10z m-40 -20 c-3 -5 -13 -10 -21 -10 -8 0 -14 -4 -14 -10 0 -5
-5 -10 -11 -10 -16 0 0 20 25 30 28 12 28 12 21 0z m17 -17 c-6 -3 -10 -9 -7
-14 4 -5 -1 -6 -10 -3 -14 6 -14 8 2 19 10 8 20 11 23 8 3 -3 -1 -8 -8 -10z
m-286 -31 c-4 -3 -14 2 -24 12 -16 18 -16 18 6 6 13 -6 21 -14 18 -18z m119 8
c3 -5 1 -10 -4 -10 -6 0 -11 5 -11 10 0 6 2 10 4 10 3 0 8 -4 11 -10z m199
-39 c-2 -3 -12 3 -22 13 -16 17 -16 18 5 5 12 -7 20 -15 17 -18z m-297 13 c-3
-3 -12 -4 -19 -1 -8 3 -5 6 6 6 11 1 17 -2 13 -5z m86 -9 c-3 -9 -2 -15 3 -14
20 3 34 -2 34 -12 0 -5 -4 -8 -9 -4 -5 3 -12 1 -16 -5 -4 -6 -11 -8 -16 -4 -5
3 -7 9 -4 14 3 5 0 12 -6 16 -8 4 -7 9 2 15 19 12 19 11 12 -6z m-193 -16 c0
-6 -4 -7 -10 -4 -5 3 -10 11 -10 16 0 6 5 7 10 4 6 -3 10 -11 10 -16z m73 13
c3 -4 -3 -18 -14 -31 -10 -13 -19 -19 -19 -13 0 5 7 15 15 22 13 11 13 15 3
21 -9 6 -9 9 -1 9 6 0 14 -3 16 -8z m67 -17 c14 -19 14 -19 -2 -6 -10 7 -18
18 -18 24 0 6 1 8 3 6 1 -2 9 -13 17 -24z m-187 -16 c4 -16 3 -18 -9 -8 -7 6
-11 15 -8 20 8 13 11 11 17 -12z m72 11 c3 -5 1 -10 -4 -10 -6 0 -11 5 -11 10
0 6 2 10 4 10 3 0 8 -4 11 -10z m100 -10 c10 -11 21 -18 25 -15 9 5 6 -27 -4
-43 -11 -18 -27 -15 -24 4 2 10 -2 19 -8 21 -5 2 -10 -7 -10 -19 1 -20 -13
-40 -14 -20 -1 4 -8 17 -16 30 -15 23 -11 47 7 37 5 -4 9 1 9 9 0 22 13 20 35
-4z"/>
<path d="M2505 679 c-4 -6 -2 -16 5 -22 10 -9 11 -9 6 0 -3 6 -1 13 6 15 9 3
9 6 1 11 -7 4 -15 2 -18 -4z"/>
<path d="M2046 595 c-3 -9 -10 -13 -16 -10 -15 9 -11 -7 7 -30 12 -16 14 -16
10 -3 -3 10 -2 20 4 24 13 8 40 -16 32 -29 -3 -6 -1 -7 5 -3 13 8 3 35 -21 55
-12 9 -16 8 -21 -4z"/>
<path d="M1530 2090 c0 -5 5 -10 10 -10 6 0 10 5 10 10 0 6 -4 10 -10 10 -5 0
-10 -4 -10 -10z"/>
<path d="M1586 2090 c6 -8 10 -23 8 -33 -1 -11 0 -16 4 -13 12 13 10 36 -6 48
-15 11 -15 11 -6 -2z"/>
<path d="M2026 2088 c3 -5 10 -6 15 -3 13 9 11 12 -6 12 -8 0 -12 -4 -9 -9z"/>
<path d="M1630 2066 c7 -7 13 -7 20 0 6 6 3 10 -10 10 -13 0 -16 -4 -10 -10z"/>
<path d="M1355 2060 c-4 -6 -12 -10 -18 -9 -18 3 -47 -12 -47 -23 0 -6 -18
-47 -39 -91 -22 -45 -49 -112 -62 -149 -12 -38 -26 -68 -30 -68 -5 0 -6 -6 -4
-12 7 -19 -80 -289 -90 -280 -4 4 -5 2 -2 -5 10 -15 -37 -186 -48 -176 -4 4
-5 3 -2 -3 6 -11 -52 -263 -63 -274 -3 -3 -6 -14 -6 -25 -2 -17 -15 -86 -29
-145 -2 -8 -4 -25 -4 -38 -1 -13 -4 -21 -9 -18 -4 2 -8 -8 -8 -22 -3 -79 -5
-93 -11 -89 -5 3 -8 -14 -9 -36 -1 -62 -15 -221 -21 -230 -10 -16 28 -18 61
-2 26 13 40 14 49 7 10 -8 13 -6 13 8 0 10 -5 16 -11 14 -5 -3 -1 2 10 10 43
34 80 71 80 81 0 5 8 9 18 7 9 -2 17 1 16 5 -4 16 14 43 28 43 8 0 11 5 8 10
-3 6 1 13 9 16 9 3 13 10 10 15 -3 5 -2 8 3 7 4 -2 9 2 11 7 7 22 36 45 56 45
17 0 18 -2 6 -9 -8 -6 -18 -7 -24 -4 -5 4 -6 1 -1 -7 6 -9 4 -11 -5 -5 -9 6
-11 4 -5 -5 6 -9 4 -11 -5 -5 -9 5 -11 4 -6 -4 6 -8 12 -9 20 -2 7 6 17 7 21
3 5 -4 5 -1 1 5 -4 7 -2 13 3 13 6 0 11 -6 11 -14 0 -20 17 -29 26 -15 4 7 3
9 -3 6 -6 -4 -13 3 -16 14 -4 15 -2 19 9 15 8 -3 17 1 20 9 4 8 10 12 15 9 5
-3 9 0 9 6 0 7 -6 10 -14 7 -8 -3 -22 0 -32 8 -16 11 -16 17 -6 39 7 17 17 24
24 20 7 -5 9 -2 5 9 -4 11 -2 14 9 10 22 -8 17 -32 -7 -28 -15 3 -19 0 -15
-11 3 -9 1 -12 -4 -9 -6 3 -10 1 -10 -4 0 -10 14 -15 34 -12 4 1 14 -4 22 -10
10 -8 14 -8 14 0 0 6 -4 11 -8 11 -5 0 -9 7 -9 15 0 10 6 14 16 10 13 -5 14
-4 4 6 -22 22 -14 33 9 13 12 -10 18 -14 15 -7 -4 6 -2 14 3 16 6 3 5 4 -2 3
-7 -2 -22 4 -32 13 -16 13 -18 13 -11 1 4 -8 4 -12 0 -7 -14 12 -15 37 -2 34
7 -1 11 4 10 11 -2 6 3 12 10 12 7 0 14 -10 14 -22 2 -16 0 -19 -6 -9 -5 8
-11 9 -15 3 -3 -5 1 -12 9 -16 8 -3 17 0 21 6 4 7 10 6 16 -3 8 -11 9 -10 5 3
-3 9 -1 19 6 21 9 3 8 8 -2 20 -8 10 -9 17 -3 17 6 0 16 -8 22 -17 7 -12 10
-13 7 -3 -2 8 0 24 5 35 8 18 8 18 -4 3 -10 -11 -19 -13 -30 -7 -17 9 -20 -4
-5 -27 7 -12 -1 -24 -16 -24 -6 0 -7 3 -4 6 3 4 2 15 -3 24 -11 20 11 47 29
36 5 -4 12 -2 16 4 3 5 14 10 24 10 11 0 24 12 31 30 12 30 13 30 27 10 8 -11
18 -20 24 -20 5 0 -1 10 -12 21 -17 17 -19 23 -8 30 8 5 9 9 3 9 -5 0 -15 -5
-22 -12 -8 -8 -12 -8 -12 -1 0 17 28 35 41 27 7 -4 9 -3 5 4 -3 5 -3 12 1 15
5 2 2 2 -4 1 -7 -2 -16 4 -21 13 -8 13 -11 13 -18 2 -5 -8 -9 -22 -10 -31 -3
-42 -4 -43 -13 -29 -6 9 -11 10 -15 2 -6 -10 6 -15 27 -12 10 1 9 -7 -3 -30
-6 -10 -16 -19 -22 -19 -7 0 -7 4 1 14 8 10 9 16 1 21 -9 6 -14 -1 -11 -17 0
-5 -4 -8 -10 -8 -5 0 -8 -4 -4 -9 3 -5 0 -13 -6 -17 -8 -5 -9 -3 -4 6 6 10 3
12 -11 7 -18 -7 -18 -7 0 8 11 8 16 15 10 15 -5 0 -1 5 9 11 9 6 15 14 12 18
-2 5 2 14 10 21 8 7 15 18 15 26 0 7 9 22 21 33 11 10 21 26 23 34 1 8 8 22
15 31 7 9 10 16 6 16 -4 0 -2 7 5 15 13 15 30 12 30 -7 0 -5 -6 -8 -14 -5 -9
4 -13 -2 -12 -16 0 -12 -4 -21 -11 -20 -7 2 -10 -7 -7 -23 3 -18 1 -23 -7 -18
-8 4 -9 3 -5 -5 10 -15 29 -3 22 15 -3 7 -1 16 4 19 10 6 14 -7 11 -32 -2 -17
16 -25 25 -12 5 8 3 9 -6 4 -10 -6 -12 -4 -7 9 4 10 4 23 0 29 -14 23 -12 38
5 33 12 -4 23 4 35 25 11 21 22 29 33 25 9 -3 12 -2 9 5 -4 5 -15 7 -26 4 -13
-5 -19 -2 -17 7 2 8 -6 13 -19 12 -13 -1 -20 3 -17 7 3 5 10 7 15 4 5 -4 9 0
9 8 0 23 27 70 34 58 4 -5 2 -12 -4 -16 -6 -4 -7 -11 -4 -17 4 -6 2 -8 -4 -4
-8 5 -10 -7 -3 -32 3 -9 41 21 40 31 0 9 -2 9 -6 0 -2 -7 -9 -13 -14 -13 -11
0 -8 22 5 31 4 4 2 17 -4 30 -10 17 -10 24 -1 27 6 2 8 9 5 14 -4 7 -2 8 4 4
11 -7 17 6 13 28 -1 5 3 12 8 16 6 3 12 15 14 25 2 11 11 34 20 51 9 17 13 35
9 40 -4 5 1 2 11 -5 9 -7 17 -19 17 -25 0 -6 -5 -4 -10 4 -9 13 -10 13 -11 0
-1 -8 -1 -18 0 -22 0 -5 -5 -8 -11 -8 -7 0 -5 -5 5 -11 9 -5 17 -15 17 -21 0
-7 -5 -6 -15 2 -15 12 -20 4 -16 -22 0 -5 -4 -8 -10 -8 -5 0 -7 -5 -3 -12 4
-6 3 -8 -4 -4 -6 3 -9 -1 -8 -11 2 -10 -2 -22 -8 -26 -6 -5 0 -5 13 -2 17 5
22 4 16 -5 -6 -9 -4 -11 5 -5 10 6 10 11 -3 20 -9 7 -14 15 -10 18 3 4 12 2
20 -4 9 -9 13 -8 13 0 0 6 -4 11 -9 11 -6 0 -9 9 -8 20 1 22 22 22 22 -1 0 -8
11 -14 27 -15 15 -1 25 2 23 7 -3 4 -14 5 -24 2 -15 -4 -19 0 -17 14 2 10 11
17 20 17 24 -2 19 5 -10 17 -26 9 -26 10 -9 29 16 18 17 21 1 45 -9 14 -13 25
-8 25 5 0 9 6 10 13 1 12 9 47 12 57 1 3 2 9 1 13 -1 5 3 6 8 3 10 -7 9 -25
-2 -43 -6 -9 -3 -11 10 -6 16 6 16 5 4 -10 -7 -9 -17 -15 -21 -12 -9 6 -7 -11
5 -37 4 -10 12 -18 17 -18 6 0 5 6 -2 15 -13 15 -2 21 16 8 5 -5 2 -1 -8 8
-20 19 -12 35 9 18 9 -9 13 -8 13 0 0 6 -4 11 -9 11 -6 0 -8 9 -6 20 2 11 -1
20 -7 20 -6 0 -8 3 -5 6 3 4 2 15 -4 26 -5 10 -6 24 -2 31 8 12 12 28 15 60 1
10 8 15 15 13 7 -3 15 -1 19 5 3 6 13 8 23 4 12 -5 13 -4 4 6 -10 10 -15 9
-28 -1 -11 -9 -15 -9 -15 -1 0 7 -5 9 -12 5 -7 -4 -8 -3 -4 5 4 6 13 8 19 4 7
-4 5 2 -3 12 -8 10 -10 16 -4 12 7 -4 14 0 17 8 4 9 1 12 -7 9 -10 -4 -12 5
-11 33 3 42 -29 149 -51 174 -8 9 -11 19 -7 24 5 4 3 5 -3 2 -6 -3 -21 4 -35
16 -20 18 -69 47 -89 52 -70 18 -122 26 -158 26 -13 -1 -20 4 -17 9 3 6 4 10
1 10 -3 0 -8 -5 -11 -10z m180 -946 c-1 -14 -8 -31 -15 -37 -10 -9 -11 -9 -6
0 4 7 2 21 -4 32 -8 16 -6 20 8 24 9 3 18 5 19 6 1 0 0 -11 -2 -25z m-85 -143
c0 -6 -4 -12 -8 -15 -5 -3 -9 1 -9 9 0 8 4 15 9 15 4 0 8 -4 8 -9z m-166 -270
c3 -5 -1 -11 -9 -14 -9 -4 -12 -1 -8 9 6 16 10 17 17 5z m-24 -63 c0 -5 -10
-3 -22 4 -13 7 -27 11 -31 10 -5 -1 -6 2 -2 7 7 12 55 -7 55 -21z"/>
<path d="M1705 2050 c-3 -6 1 -7 9 -4 18 7 21 14 7 14 -6 0 -13 -4 -16 -10z"/>
<path d="M1653 1999 c-2 -23 3 -25 10 -4 4 8 3 16 -1 19 -4 3 -9 -4 -9 -15z"/>
<path d="M2830 1921 c0 -10 19 -25 25 -20 1 2 -3 10 -11 17 -8 7 -14 8 -14 3z"/>
<path d="M2849 1853 c-13 -16 -12 -17 4 -4 9 7 17 15 17 17 0 8 -8 3 -21 -13z"/>
<path d="M1735 1830 c-3 -5 -1 -10 4 -10 6 0 11 5 11 10 0 6 -2 10 -4 10 -3 0
-8 -4 -11 -10z"/>
<path d="M1748 1803 c7 -3 16 -2 19 1 4 3 -2 6 -13 5 -11 0 -14 -3 -6 -6z"/>
<path d="M1730 1770 c0 -5 5 -10 11 -10 5 0 7 5 4 10 -3 6 -8 10 -11 10 -2 0
-4 -4 -4 -10z"/>
<path d="M1779 1763 c-13 -17 -13 -17 6 -3 11 8 22 16 24 17 2 2 0 3 -6 3 -6
0 -17 -8 -24 -17z"/>
<path d="M2916 1772 c-3 -5 1 -9 9 -9 8 0 12 4 9 9 -3 4 -7 8 -9 8 -2 0 -6 -4
-9 -8z"/>
<path d="M1740 1746 c0 -2 7 -7 16 -10 8 -3 12 -2 9 4 -6 10 -25 14 -25 6z"/>
<path d="M1755 1709 c-11 -16 -1 -19 13 -3 7 8 8 14 3 14 -5 0 -13 -5 -16 -11z"/>
<path d="M1794 1696 c1 -8 5 -18 8 -22 4 -3 5 1 4 10 -1 8 -5 18 -8 22 -4 3
-5 -1 -4 -10z"/>
<path d="M1750 1641 c0 -6 4 -13 10 -16 6 -3 7 1 4 9 -7 18 -14 21 -14 7z"/>
<path d="M1776 1637 c3 -10 9 -15 12 -12 3 3 0 11 -7 18 -10 9 -11 8 -5 -6z"/>
<path d="M1726 1631 c-3 -4 1 -17 9 -27 11 -16 16 -17 27 -6 11 11 10 12 -6 6
-13 -5 -17 -4 -12 4 4 7 2 12 -4 12 -6 0 -8 5 -5 10 3 6 4 10 1 10 -3 0 -7 -4
-10 -9z"/>
<path d="M1705 1580 c-12 -19 5 -31 27 -19 17 9 18 13 7 20 -18 11 -26 11 -34
-1z m25 -4 c0 -3 -4 -8 -10 -11 -5 -3 -10 -1 -10 4 0 6 5 11 10 11 6 0 10 -2
10 -4z"/>
<path d="M1775 1579 c-4 -6 -5 -12 -2 -15 2 -3 7 2 10 11 7 17 1 20 -8 4z"/>
<path d="M2906 1528 c3 -5 10 -6 15 -3 13 9 11 12 -6 12 -8 0 -12 -4 -9 -9z"/>
<path d="M2990 1456 c0 -2 7 -7 16 -10 8 -3 12 -2 9 4 -6 10 -25 14 -25 6z"/>
<path d="M2935 1420 c-8 -13 9 -20 24 -11 10 6 9 10 -3 14 -8 3 -18 2 -21 -3z"/>
<path d="M1715 1410 c-3 -5 -1 -10 4 -10 6 0 11 5 11 10 0 6 -2 10 -4 10 -3 0
-8 -4 -11 -10z"/>
<path d="M1713 1375 c0 -8 4 -12 9 -9 5 3 6 10 3 15 -9 13 -12 11 -12 -6z"/>
<path d="M1678 1373 c7 -3 16 -2 19 1 4 3 -2 6 -13 5 -11 0 -14 -3 -6 -6z"/>
<path d="M2750 1376 c0 -2 7 -7 16 -10 8 -3 12 -2 9 4 -6 10 -25 14 -25 6z"/>
<path d="M2745 1321 c6 -18 4 -22 -6 -15 -11 6 -12 5 -2 -8 7 -8 10 -18 6 -21
-3 -4 0 -13 7 -22 7 -8 9 -15 4 -15 -5 0 -2 -5 6 -11 13 -9 13 -10 0 -6 -8 2
-14 9 -13 15 2 7 -4 9 -14 5 -12 -5 -14 -3 -8 7 6 9 4 11 -4 5 -19 -11 10 -37
49 -41 17 -2 35 -6 40 -9 4 -3 11 2 14 11 3 9 11 12 18 8 7 -4 10 -4 6 1 -4 4
-2 15 5 23 10 13 9 14 -10 3 -13 -6 -23 -15 -23 -19 0 -4 -9 -8 -20 -8 -18 0
-24 8 -21 29 0 4 -3 7 -8 7 -10 0 -9 19 2 37 5 7 3 21 -2 30 -8 14 -10 15 -11
3 0 -13 -1 -13 -11 0 -8 12 -9 10 -4 -9z m16 -24 c-10 -9 -11 -8 -5 6 3 10 9
15 12 12 3 -3 0 -11 -7 -18z"/>
<path d="M2974 1305 c-3 -8 -4 -20 -1 -27 3 -7 6 -3 6 9 1 16 6 21 16 17 8 -4
15 -4 15 -1 0 13 -31 15 -36 2z"/>
<path d="M1656 1272 c-3 -4 4 -9 15 -9 23 -2 25 3 4 10 -8 4 -16 3 -19 -1z"/>
<path d="M1575 1250 c-6 -10 1 -14 19 -11 4 1 14 -4 22 -10 8 -6 14 -7 14 -2
0 15 -48 34 -55 23z"/>
<path d="M1590 1210 c0 -5 5 -10 10 -10 6 0 10 5 10 10 0 6 -4 10 -10 10 -5 0
-10 -4 -10 -10z"/>
<path d="M1636 1203 c-6 -14 -5 -15 5 -6 7 7 10 15 7 18 -3 3 -9 -2 -12 -12z"/>
<path d="M1613 1173 c1 -17 4 -19 14 -11 15 12 18 22 4 14 -5 -4 -11 0 -14 6
-3 7 -4 3 -4 -9z"/>
<path d="M2839 1123 c-13 -16 -12 -17 4 -4 9 7 17 15 17 17 0 8 -8 3 -21 -13z"/>
<path d="M1616 1108 c3 -5 10 -6 15 -3 13 9 11 12 -6 12 -8 0 -12 -4 -9 -9z"/>
<path d="M1570 1069 c0 -5 5 -7 10 -4 6 3 10 8 10 11 0 2 -4 4 -10 4 -5 0 -10
-5 -10 -11z"/>
<path d="M1535 1049 c-4 -6 -4 -13 -1 -16 3 -4 6 -1 6 6 0 7 5 9 10 6 6 -4 7
-11 4 -17 -4 -7 -2 -8 5 -4 9 6 9 11 0 22 -14 17 -16 17 -24 3z"/>
<path d="M2780 1025 c-14 -16 -3 -20 19 -6 8 5 9 11 3 15 -5 3 -15 -1 -22 -9z"/>
<path d="M1530 989 c0 -5 5 -7 10 -4 6 3 10 8 10 11 0 2 -4 4 -10 4 -5 0 -10
-5 -10 -11z"/>
<path d="M2895 990 c-3 -5 -1 -10 4 -10 6 0 11 5 11 10 0 6 -2 10 -4 10 -3 0
-8 -4 -11 -10z"/>
<path d="M2801 981 c-7 -5 -10 -14 -6 -20 4 -7 2 -18 -4 -25 -8 -9 -7 -13 5
-13 9 0 14 8 12 21 -1 12 1 27 5 34 10 14 7 15 -12 3z"/>
<path d="M2574 965 c19 -15 19 -16 -6 -19 -6 0 -13 -7 -16 -15 -3 -10 1 -12
14 -8 18 7 18 6 1 -7 -10 -8 -14 -17 -9 -20 5 -3 18 8 30 23 20 28 20 30 3 45
-10 9 -22 16 -27 16 -5 0 0 -7 10 -15z"/>
<path d="M2530 950 c-9 -6 -10 -10 -3 -10 6 0 15 5 18 10 8 12 4 12 -15 0z"/>
<path d="M1474 912 c4 -3 14 -7 22 -8 9 -1 13 0 10 4 -4 3 -14 7 -22 8 -9 1
-13 0 -10 -4z"/>
<path d="M2523 913 c6 -11 -29 -74 -36 -66 -4 3 1 20 9 37 14 28 14 29 -1 12
-8 -11 -15 -25 -15 -30 0 -6 -5 -4 -11 4 -8 12 -9 10 -4 -9 5 -17 4 -22 -5
-16 -8 5 -11 4 -7 -1 3 -6 18 -10 34 -9 20 0 28 5 27 17 -1 10 3 16 8 15 6 -1
12 10 13 26 2 15 -1 27 -6 27 -6 0 -8 -3 -6 -7z"/>
<path d="M2835 910 c-3 -5 -1 -10 4 -10 6 0 11 5 11 10 0 6 -2 10 -4 10 -3 0
-8 -4 -11 -10z"/>
<path d="M1435 870 c-3 -5 -1 -10 4 -10 6 0 11 5 11 10 0 6 -2 10 -4 10 -3 0
-8 -4 -11 -10z"/>
<path d="M2530 846 c0 -8 -9 -18 -20 -21 -11 -3 -20 -11 -20 -16 0 -6 -4 -7
-10 -4 -6 3 -7 -1 -4 -9 5 -13 10 -12 35 6 16 12 29 25 29 30 0 4 8 4 18 1 15
-6 15 -5 3 10 -17 21 -31 22 -31 3z"/>
<path d="M2788 833 c7 -3 16 -2 19 1 4 3 -2 6 -13 5 -11 0 -14 -3 -6 -6z"/>
<path d="M1466 812 c-3 -5 1 -9 9 -9 8 0 12 4 9 9 -3 4 -7 8 -9 8 -2 0 -6 -4
-9 -8z"/>
<path d="M2539 813 c-1 -5 -1 -12 0 -17 1 -4 -4 -15 -11 -24 -7 -9 2 -5 20 8
17 13 32 27 32 32 0 10 -40 11 -41 1z"/>
<path d="M1375 771 c-3 -5 -2 -12 3 -15 5 -3 9 1 9 9 0 17 -3 19 -12 6z"/>
<path d="M1353 705 c0 -8 4 -12 9 -9 5 3 6 10 3 15 -9 13 -12 11 -12 -6z"/>
<path d="M2195 652 c-7 -18 3 -31 13 -16 4 6 18 10 32 9 14 -2 32 2 40 7 12 8
11 8 -3 4 -11 -3 -24 -3 -30 1 -21 13 -46 10 -52 -5z"/>
<path d="M2306 622 c-4 -6 0 -24 9 -39 15 -27 15 -27 9 -3 l-7 25 23 -20 c13
-11 20 -15 17 -8 -4 7 1 14 13 18 11 3 20 11 20 16 0 11 -14 12 -24 2 -12 -12
-30 -10 -42 6 -8 10 -13 11 -18 3z"/>
<path d="M1295 590 c3 -5 8 -10 11 -10 2 0 4 5 4 10 0 6 -5 10 -11 10 -5 0 -7
-4 -4 -10z"/>
<path d="M2236 592 c-3 -5 1 -9 9 -9 8 0 12 4 9 9 -3 4 -7 8 -9 8 -2 0 -6 -4
-9 -8z"/>
<path d="M2476 583 c-4 -9 -3 -20 1 -24 4 -4 9 3 9 17 2 28 -1 31 -10 7z"/>
<path d="M1151 569 c-12 -10 -22 -20 -21 -23 1 -21 -1 -26 -9 -22 -9 6 -26
-10 -33 -29 -1 -5 -8 -9 -15 -9 -7 1 -12 -1 -11 -5 3 -13 -15 -41 -22 -36 -5
3 -12 0 -16 -6 -5 -8 -3 -9 6 -4 8 5 11 3 8 -6 -3 -8 -11 -13 -17 -11 -7 1 -5
-8 5 -23 19 -30 29 -33 14 -6 -6 11 -6 22 -1 25 5 3 11 -4 14 -16 6 -21 7 -21
25 -5 10 9 22 14 25 10 4 -3 7 -1 7 5 0 16 -10 15 -32 -5 -10 -9 -18 -11 -18
-5 0 6 -3 19 -7 29 -6 15 -5 16 9 5 22 -17 35 3 16 25 -11 14 -10 15 9 9 12
-4 24 -2 28 4 3 5 1 10 -5 10 -6 0 -9 4 -6 9 7 10 31 9 42 -2 11 -10 24 -8 24
4 0 5 -4 8 -9 5 -5 -3 -15 2 -22 11 -12 14 -11 15 6 10 22 -7 54 8 42 20 -5 4
-12 1 -16 -6 -5 -7 -14 -10 -21 -6 -8 5 -5 12 11 23 20 14 23 14 35 -3 8 -10
14 -14 14 -8 0 7 -5 15 -10 18 -6 4 -7 11 -4 17 4 6 9 5 15 -3 4 -7 11 -10 15
-6 23 23 -47 29 -75 6z m29 7 c0 -2 -8 -10 -17 -17 -16 -13 -17 -12 -4 4 13
16 21 21 21 13z m-56 -64 c3 -5 -1 -9 -9 -9 -8 0 -12 4 -9 9 3 4 7 8 9 8 2 0
6 -4 9 -8z m-44 -73 c0 -6 -4 -7 -10 -4 -5 3 -10 11 -10 16 0 6 5 7 10 4 6 -3
10 -11 10 -16z"/>
<path d="M2432 561 c-11 -7 -11 -9 0 -14 9 -3 15 1 15 9 0 8 -1 14 -1 14 -1 0
-7 -4 -14 -9z"/>
<path d="M1246 552 c-3 -5 1 -9 9 -9 8 0 12 4 9 9 -3 4 -7 8 -9 8 -2 0 -6 -4
-9 -8z"/>
<path d="M2347 549 c7 -7 15 -10 18 -7 3 3 -2 9 -12 12 -14 6 -15 5 -6 -5z"/>
<path d="M1936 495 c-3 -8 -1 -15 4 -15 6 0 10 7 10 15 0 8 -2 15 -4 15 -2 0
-6 -7 -10 -15z"/>
<path d="M1195 479 c-4 -6 -5 -12 -2 -15 2 -3 7 2 10 11 7 17 1 20 -8 4z"/>
<path d="M1120 450 c0 -5 5 -10 10 -10 6 0 10 5 10 10 0 6 -4 10 -10 10 -5 0
-10 -4 -10 -10z"/>
<path d="M994 371 c1 -22 4 -43 8 -46 3 -3 4 10 2 30 -2 26 0 34 9 28 7 -4 7
0 -2 10 -7 9 -14 17 -16 17 -1 0 -1 -18 -1 -39z"/>
<path d="M1079 363 c-13 -17 -13 -17 6 -3 11 8 22 16 24 17 2 2 0 3 -6 3 -6 0
-17 -8 -24 -17z"/>
<path d="M953 345 c0 -8 4 -12 9 -9 5 3 6 10 3 15 -9 13 -12 11 -12 -6z"/>
</g>
</svg>
